<svg xmlns="http://www.w3.org/2000/svg" width="41.783" height="41.842" viewBox="0 0 41.783 41.842">
  <g id="franchise_icon" data-name="franchise icon" transform="translate(5 -177)">
    <path id="Path_170892" data-name="Path 170892" d="M67.019,177H85.7a1.576,1.576,0,0,1,.909,1.646c-.02,5.882-.011,11.764-.011,17.646v.485h-.55q-5.81,0-11.619,0a3.569,3.569,0,0,0-3.111,1.636q-1.546,2.279-3.045,4.589a1.821,1.821,0,0,0-.26.876c-.035.815-.024,1.634-.009,2.45a3.844,3.844,0,0,0,1.367,2.94.689.689,0,0,1,.266.586q-.012,4.493-.005,8.986H55.681a1.555,1.555,0,0,1-.909-1.646c.038-1.619.012-3.24.012-4.86V211.9a9.837,9.837,0,0,0,10.592-9.391,9.464,9.464,0,0,0-2.395-6.837,9.738,9.738,0,0,0-8.178-3.378v-3.033h8.282a3.684,3.684,0,0,0,3.933-3.926Q67.02,181.166,67.019,177Zm5.665,17.162q3.83,0,7.66,0a1.243,1.243,0,0,0,1.249-.741,1.224,1.224,0,0,0-1.221-1.711q-4.095-.006-8.19,0-3.545,0-7.09,0a1.228,1.228,0,1,0-.027,2.451C67.6,194.166,70.144,194.162,72.684,194.162Zm2.942-7.355q-2.4,0-4.806,0a1.232,1.232,0,1,0,.016,2.45q4.745,0,9.49,0a1.234,1.234,0,1,0-.016-2.45Q77.968,186.8,75.626,186.807Zm-.042-2.452c1.6,0,3.2,0,4.806,0a1.228,1.228,0,1,0-.022-2.449q-4.765-.006-9.531,0a1.234,1.234,0,1,0,.022,2.45Q73.222,184.357,75.584,184.355Z" transform="translate(-53.258)" fill="#f32f42"/>
    <path id="Path_170895" data-name="Path 170895" d="M-5,346.266c.075-.328.144-.657.227-.983a7.348,7.348,0,1,1-.152,2.84A1.264,1.264,0,0,0-5,347.9Zm6.477.833c-.312-.318-.578-.608-.865-.877a1.215,1.215,0,0,0-1.723-.011,1.2,1.2,0,0,0-.016,1.723q.856.9,1.756,1.759a1.174,1.174,0,0,0,1.688,0c1.173-1.151,2.33-2.319,3.486-3.487a1.142,1.142,0,0,0,.335-1.046,1.16,1.16,0,0,0-.828-.967,1.188,1.188,0,0,0-1.269.322C3.2,345.36,2.359,346.21,1.477,347.1Z" transform="translate(0 -144.994)" fill="#f32f42"/>
    <path id="Path_170896" data-name="Path 170896" d="M213.583,481.93V473.42a11.687,11.687,0,0,0,1.423-.4,11.086,11.086,0,0,0,1.26-.72,4.028,4.028,0,0,0,5.472-.023,4.048,4.048,0,0,0,5.528-.018,4.151,4.151,0,0,0,2.63,1.094v.433c0,2.166-.022,4.331.012,6.5A1.566,1.566,0,0,1,229,481.93H225.41c0-1.59,0-3.181,0-4.771a1.24,1.24,0,0,0-1.37-1.357q-2.279,0-4.558,0a1.252,1.252,0,0,0-1.411,1.4q0,2.365,0,4.73Z" transform="translate(-194.765 -263.087)" fill="#f32f42"/>
    <path id="Path_170898" data-name="Path 170898" d="M277.211,531.16v-3.649h2.447v3.649Z" transform="translate(-251.46 -312.318)" fill="#f32f42"/>
    <path id="Path_170902" data-name="Path 170902" d="M62.637,193.833l8.915-8.933a1.155,1.155,0,0,1,.027.2q0,3.714,0,7.428a1.22,1.22,0,0,1-1.249,1.315c-2.525.009-5.051,0-7.576,0A.859.859,0,0,1,62.637,193.833Z" transform="translate(-60.267 -7.039)" fill="#f32f42"/>
    <path id="Path_170903" data-name="Path 170903" d="M206.249,384.628c.736-1.1,1.41-2.169,2.162-3.182a1.338,1.338,0,0,1,.945-.445q5.851-.045,11.7,0a1.338,1.338,0,0,1,.943.448c.751,1.012,1.425,2.082,2.16,3.179Z" transform="translate(-188.23 -181.752)" fill="#f32f42"/>
    <path id="Path_170904" data-name="Path 170904" d="M201.67,437.519a8.591,8.591,0,0,1-.1,1.331,1.492,1.492,0,0,1-1.619,1.084,1.532,1.532,0,0,1-1.355-1.41c-.021-.324,0-.651,0-1Z" transform="translate(-181.404 -232.132)" fill="#f32f42"/>
    <path id="Path_170905" data-name="Path 170905" d="M302.7,437.432c0,.386.029.74-.006,1.088a1.5,1.5,0,0,1-1.493,1.343,1.518,1.518,0,0,1-1.52-1.322,9.949,9.949,0,0,1-.007-1.109Z" transform="translate(-271.459 -232.054)" fill="#f32f42"/>
    <path id="Path_170906" data-name="Path 170906" d="M249.222,437.342h3.061a8.626,8.626,0,0,1-.1,1.325,1.474,1.474,0,0,1-1.6,1.11,1.5,1.5,0,0,1-1.361-1.349C249.2,438.081,249.222,437.727,249.222,437.342Z" transform="translate(-226.512 -231.974)" fill="#f32f42"/>
    <path id="Path_170907" data-name="Path 170907" d="M350.276,437.441h3.061a8.527,8.527,0,0,1-.1,1.318,1.475,1.475,0,0,1-1.6,1.107,1.5,1.5,0,0,1-1.358-1.352C350.249,438.166,350.276,437.812,350.276,437.441Z" transform="translate(-316.555 -232.062)" fill="#f32f42"/>
  </g>
</svg>
