<svg xmlns="http://www.w3.org/2000/svg" width="20.211" height="30.667" viewBox="0 0 20.211 30.667">
  <g id="Group_72348" data-name="Group 72348" transform="translate(9406.525 4012)">
    <path id="Path_167051" data-name="Path 167051" d="M431.188,348c.17.05.342.093.51.15a2.9,2.9,0,0,1,1.985,2.776c.005.18,0,.359,0,.539q0,12.048,0,24.1a2.908,2.908,0,0,1-1.711,2.846,6.011,6.011,0,0,1-.787.26H415.973a7.312,7.312,0,0,1-1.272-.553,2.836,2.836,0,0,1-1.226-2.523q.008-5.448,0-10.9,0-6.81,0-13.62a2.9,2.9,0,0,1,1.958-2.914c.177-.061.358-.108.538-.161Zm-16.513,24.662h17.811v-.286q0-10.676,0-21.351a1.7,1.7,0,0,0-1.836-1.826q-7.068,0-14.136,0a2.332,2.332,0,0,0-.446.031,1.7,1.7,0,0,0-1.391,1.824q0,10.646,0,21.291Zm.015,1.232c-.006.123-.015.212-.014.3,0,.589-.025,1.18.026,1.765a1.651,1.651,0,0,0,1.68,1.509c.249,0,.5,0,.749,0q6.782,0,13.564,0a1.692,1.692,0,0,0,1.79-1.752c.008-.389,0-.778,0-1.168,0-.216,0-.431,0-.654Z" transform="translate(-9820 -4360)"/>
    <path id="Path_167054" data-name="Path 167054" d="M452.6,471.717q2.679,0,5.359,0a2.085,2.085,0,0,1,2.206,2.136q.037,2.8,0,5.6a2.1,2.1,0,0,1-2.226,2.151q-5.344,0-10.687,0a2.109,2.109,0,0,1-2.24-2.2q-.019-2.739,0-5.478a2.1,2.1,0,0,1,2.229-2.207Q449.924,471.715,452.6,471.717Zm-.009,1.2h-5.329a.934.934,0,0,0-1.054,1.048q-.005,2.694,0,5.389a.939.939,0,0,0,1.053,1.052h10.658a.939.939,0,0,0,1.053-1.051q.005-2.694,0-5.389a.934.934,0,0,0-1.052-1.049Z" transform="translate(-9849.014 -4473.836)"/>
    <path id="Path_167055" data-name="Path 167055" d="M500.358,378.871c-.908,0-1.816,0-2.724,0a.635.635,0,0,1-.676-.387.583.583,0,0,1,.481-.8,2.2,2.2,0,0,1,.3-.014h5.238a2.106,2.106,0,0,1,.328.018.57.57,0,0,1,.489.557.553.553,0,0,1-.473.6,7.034,7.034,0,0,1-.836.025C501.775,378.873,501.067,378.871,500.358,378.871Z" transform="translate(-9896.777 -4387.303)"/>
    <path id="Path_167056" data-name="Path 167056" d="M528.531,688.175c-.149,0-.3.009-.447,0a.6.6,0,0,1-.558-.561.576.576,0,0,1,.5-.613,5.221,5.221,0,0,1,1.012,0,.572.572,0,0,1,.483.623.6.6,0,0,1-.568.55C528.811,688.183,528.671,688.175,528.531,688.175Z" transform="translate(-9924.942 -4671.904)"/>
    <path id="Path_167058" data-name="Path 167058" d="M518.122,508.3c-.372,0-.741-.007-1.109.006a.3.3,0,0,0-.193.134,2.013,2.013,0,0,0-.124.3.6.6,0,0,1-.779.371.593.593,0,0,1-.341-.787c.277-.758.57-1.51.857-2.264.138-.363.275-.727.416-1.089a.683.683,0,0,1,1.3.006c.414,1.1.834,2.2,1.246,3.3a.6.6,0,1,1-1.12.426C518.227,508.575,518.179,508.444,518.122,508.3Z" transform="translate(-9913.909 -4503.998)"/>
    <path id="Path_167059" data-name="Path 167059" d="M477.427,507.515c0,.325.006.6,0,.881a.588.588,0,0,1-.613.626.582.582,0,0,1-.58-.626q-.008-1.7,0-3.409a.57.57,0,0,1,.6-.612,10.622,10.622,0,0,1,1.106.009,1.567,1.567,0,0,1-.083,3.13C477.723,507.519,477.6,507.515,477.427,507.515Zm.026-1.926v.717c.51.032.743-.089.738-.368S477.944,505.537,477.453,505.589Z" transform="translate(-9877.742 -4503.878)"/>
    <path id="Path_167060" data-name="Path 167060" d="M562.961,505.635c.193-.294.371-.569.553-.84a.611.611,0,0,1,.87-.243.6.6,0,0,1,.133.893c-.261.413-.544.812-.793,1.233a1.192,1.192,0,0,0-.153.525c-.024.438,0,.878-.018,1.316a.56.56,0,0,1-.422.556.548.548,0,0,1-.621-.183.877.877,0,0,1-.133-.293.564.564,0,0,1-.012-.238,3.209,3.209,0,0,0-.817-2.7,1.8,1.8,0,0,1-.194-.3.594.594,0,0,1,.99-.655C562.554,505,562.743,505.3,562.961,505.635Z" transform="translate(-9955.985 -4503.954)"/>
  </g>
</svg>
