<svg xmlns="http://www.w3.org/2000/svg" width="40.472" height="40.559" viewBox="0 0 40.472 40.559">
  <g id="same_day_fill_icon" data-name="same day fill icon" transform="translate(-491.816 -192)">
    <path id="Path_170880" data-name="Path 170880" d="M513.314,232.559h-2.53c-.494-.061-.99-.112-1.482-.184A20.315,20.315,0,0,1,492,209.537a19.513,19.513,0,0,1,5.628-11.473,19.766,19.766,0,0,1,10.93-5.753c.737-.129,1.482-.209,2.223-.311h2.53a2.259,2.259,0,0,0,.3.065,19.416,19.416,0,0,1,9.358,3.157,20,20,0,0,1,9.007,13.6c.132.724.2,1.458.3,2.188v2.535c-.023.1-.051.2-.066.306-.138.938-.226,1.886-.418,2.813a20.3,20.3,0,0,1-16.191,15.576C514.85,232.367,514.08,232.454,513.314,232.559Zm.173-26.591c0-1.742,0-3.483,0-5.225a1.44,1.44,0,1,0-2.873.063c0,3.747.006,7.494-.009,11.241a1.786,1.786,0,0,0,.739,1.526c1.316,1.033,2.614,2.089,3.92,3.135,1.028.824,2.049,1.657,3.088,2.467a1.444,1.444,0,1,0,1.759-2.289q-3.156-2.54-6.323-5.066a.711.711,0,0,1-.3-.629C513.494,209.451,513.488,207.709,513.487,205.968Z" fill="#f32f42"/>
  </g>
</svg>
